<svg id="图层_1" data-name="图层 1" xmlns="http://www.w3.org/2000/svg" viewBox="0 0 701.25 386.08">
  <path d="M19.75,102.9C20.29,90,20.8,77,21.41,64.11a112.28,112.28,0,0,1,1.1-13.37c1.74-10.31,2-20.87,5.1-30.94A19.91,19.91,0,0,1,29.72,15c.92-1.46,2-1.49,3.2-.32a11,11,0,0,1,2.23,2.77c1.46,2.76,2.87,5.54,4.08,8.4a90.36,90.36,0,0,1,5.65,19.76,164.55,164.55,0,0,1,2.83,22.09q.7,18.08,1.29,36.16a21.29,21.29,0,0,1-.28,3.82c-.13.94-.29,2-1.42,2.29-1.3.32-2.11-.54-2.72-1.52a12.81,12.81,0,0,1-1.76-6.4q-.3-7.55-.47-15.1c-.22-9.18-.25-18.38-.65-27.55-.38-8.61-2.7-16.86-5.37-25a2.41,2.41,0,0,0-2.44-1.93c-1.29,0-1.74,1-2,2.08-.61,2.72-1.3,5.45-1.66,8.21a313.91,313.91,0,0,0-3.13,35.31c-.22,12.14-.94,24.27-1.17,36.41a291.58,291.58,0,0,0,3.65,50.86c1.18,7.5,2.41,15,4,22.41a52.38,52.38,0,0,0,7,18.23c2.49,3.8,4.89,7.68,7.65,11.28a39.31,39.31,0,0,0,6.15,6c2.16,1.81,4.21,1.57,6.58-.09,3.44-2.41,5.61-5.88,7.89-9.24s4.49-7,6.65-10.5,4.11-6.83,6-10.34a241.34,241.34,0,0,0,11-23.93c3.38-8.26,6.53-16.63,9.78-25,1.21-3.12,2.3-6.31,3.68-9.36a11.45,11.45,0,0,0,.8-6.07c-1.58-15.35-2.17-30.76-2.86-46.16a68.9,68.9,0,0,1,.24-7.18,11.45,11.45,0,0,1,.51-2.58c.26-.87.73-1.65,1.81-1.61s1.5.84,1.65,1.76c.3,1.81.65,3.63.77,5.46.84,13.63,1.45,27.28,2.5,40.9.69,9,1.88,17.94,3,26.89a145.17,145.17,0,0,0,2.49,14.39c1,4.5,2.56,8.89,4,13.3a31.36,31.36,0,0,0,4.19,8.31,31.7,31.7,0,0,0,9.47,8.66,39.31,39.31,0,0,0,5.31,2.76,11.83,11.83,0,0,0,3.23.78,3.31,3.31,0,0,0,3.64-2.08,34.78,34.78,0,0,0,3.63-13.07c.17-1.67.25-3.35.38-5a9.67,9.67,0,0,1,2.13-5.26c1.13-1.44,2.27-1.4,2.78.33a73.85,73.85,0,0,1,2.4,10.24,50.94,50.94,0,0,0,3.09,11.28,21.21,21.21,0,0,0,4,5.91c3.86,4.62,9.09,6.87,14.71,8.44a56.85,56.85,0,0,0,15,1.67c2.46,0,3-.54,2.89-3-.08-2.15-.19-4.31-.43-6.45a83.75,83.75,0,0,1,.8-24.59c.63-3.43,1.67-6.86,4.2-9.53,1.88-2,2.94-1.92,4.71.07a19.06,19.06,0,0,1,4.41,9.17,53.28,53.28,0,0,1,1,9.51c.12,8.79.22,17.59-.85,26.33-.48,3.88,1.56,5.35,4.81,5.59,2.56.19,4.94.11,6.75-2.13a6.87,6.87,0,0,0,1.67-4.87,40.55,40.55,0,0,0-1.17-7.3c-1.11-4.08-2.63-8.05-3.74-12.13a24,24,0,0,1-.64-5.93c0-2,1.19-3,3.59-3.42a2.89,2.89,0,0,1,3.63,2.31c1.11,3.66,2.15,7.36,3.06,11.08a19.67,19.67,0,0,0,4.45,9.15,19.27,19.27,0,0,0,9.78,5.25,24.74,24.74,0,0,0,10.7.44,12.31,12.31,0,0,0,8.8-6.7c2.34-4.25,3-8.83,3.11-13.63.13-7.18-1.19-14.14-2.57-21.12a73.11,73.11,0,0,1-.85-7.84c-.09-1.14.08-2.28,1.35-2.82a2.75,2.75,0,0,1,3.4,1.06,17.25,17.25,0,0,1,2.27,4.44c.84,2.58,1.4,5.24,2.06,7.88,2.12,8.35,4.05,16.76,6.42,25,1,3.5,2.93,6.72,4.36,10.1a17.86,17.86,0,0,0,3.57,5.34,3.15,3.15,0,0,0,3.17,1.23,2.76,2.76,0,0,0,2.12-2.62,49.32,49.32,0,0,0,.62-7.84,171.26,171.26,0,0,0-3.61-25.37c-.45-2.18-.73-4.41-1-6.62a6.11,6.11,0,0,1,.18-2.37,1.81,1.81,0,0,1,3-1,8.87,8.87,0,0,1,2.39,2.93c2,4.36,3.81,8.79,5.67,13.2,2,4.71,3.83,9.48,5.94,14.13a19,19,0,0,0,6.7,7.7,56.43,56.43,0,0,0,12.78,7,18.21,18.21,0,0,0,5.64.93,5.39,5.39,0,0,0,5.5-3.83,24.23,24.23,0,0,0,1.05-10.17,51.37,51.37,0,0,0-3.16-15.91,25.85,25.85,0,0,1-1.8-9.13,26.84,26.84,0,0,1,.31-4.29,3.25,3.25,0,0,1,2.74-2.67c1.14-.28,2.32.44,3,1.89a32.16,32.16,0,0,1,1.54,4c1.51,4.88,2.91,9.8,4.49,14.65a26.36,26.36,0,0,0,6.06,10c2,2.09,4.05,4.09,6.16,6a19.15,19.15,0,0,0,11.77,5.33c1.12.08,2.22.29,3.34.39a1.87,1.87,0,0,0,2.24-1.36c1.31-5.35,3.12-10.58,3.36-16.15a40.74,40.74,0,0,0-1.81-14c-.23-.76-.43-1.54-.6-2.32a4.42,4.42,0,0,1,3.79-5.54,2.08,2.08,0,0,1,2.18,1.19,27.78,27.78,0,0,1,2.13,4.52q2.55,7.72,4.88,15.54c1.78,6,5.33,10.84,9.68,15.18a22.85,22.85,0,0,0,6.65,5,3.25,3.25,0,0,0,3.39,0,17.45,17.45,0,0,0,2.78-1.85c3.48-3.4,6.27-7.21,7.19-12.16a38.91,38.91,0,0,0-.83-18.72c-1.79-5.92-1.6-12-1.26-18.08.1-1.91.43-3.8.72-5.69a3.05,3.05,0,0,1,2.71-2.66,3.31,3.31,0,0,1,3.61,1.3,8.29,8.29,0,0,1,1.33,3,81.81,81.81,0,0,1,1.21,8.53c.51,6.62,1.15,13.22,3.07,19.61A63.55,63.55,0,0,0,435,197.92c3.25,5,7.45,8.93,11.84,12.77,2.87,2.52,5.81,5,8.63,7.55,2.19,2,2.17,4.27-.12,6.12a10.35,10.35,0,0,1-3.57,1.79,18,18,0,0,1-4.51.55c-4.23.05-8.47.09-12.71-.07-3.92-.14-7.83-.65-11.3-2.7a15,15,0,0,1-3.18-2.47c-1.34-1.41-1-2.62,1-3.13a11.9,11.9,0,0,1,3.78-.48,53.36,53.36,0,0,1,5.43.88c2.44.44,4.87.92,7.31,1.31a8,8,0,0,0,2.39,0c1.95-.28,2.53-1.53,1.54-3.26a8.63,8.63,0,0,0-1.19-1.5c-2.49-2.7-4.88-5.49-7.54-8s-5.51-4.84-8.39-7.12c-1.67-1.33-3.17-1-4.54.77s-2.66,3.79-4.07,5.62c-6.34,8.25-15.55,8.7-23.26,4-2.63-1.61-5-3.68-7.47-5.54-.39-.29-.71-.65-1.1-.94-2.53-1.88-3.58-1.6-5.37,1a23.5,23.5,0,0,1-4.64,5.43,8.61,8.61,0,0,1-6,1.82,38.87,38.87,0,0,1-17.12-4.88,39.76,39.76,0,0,0-5-2.34c-2.31-.91-3.78-.32-4.43,2.1a10.44,10.44,0,0,1-5.94,7.06c-3.42,1.64-6.86,2.5-10.66,1.51A73.8,73.8,0,0,1,308,209.34c-1.32-.73-2.59-1.57-3.88-2.36-.48-.29-.93-.63-1.43-.87-2.75-1.33-3.7-.87-4.35,2.07a21,21,0,0,1-6.15,11.15c-1.9,1.77-3.11,1.83-5.29.34a39.66,39.66,0,0,1-10.77-11.1c-.83-1.26-1.39-2.7-2.17-4-1.49-2.49-2.93-2.83-5.33-1.18a45.43,45.43,0,0,0-5.52,4.21,15.81,15.81,0,0,1-11,4.53c-4.47.1-9,.17-13.42.25-1.84,0-3.69,0-5.51.15a9.23,9.23,0,0,0-7.06,3.92c-4.16,5.61-8.81,6.56-15.84,3.14a17.75,17.75,0,0,1-6.1-4.55c-1.53-1.85-3.74-2.4-6-2.54-2.79-.17-5.59-.17-8.38-.31-5-.26-10.12-.13-15.05-.95-7.11-1.19-13.07-4.53-16.48-11.38a19,19,0,0,0-2.79-3.86,2.62,2.62,0,0,0-4-.39,53,53,0,0,0-5.16,4.28,5.74,5.74,0,0,1-6.58,1.46c-6.11-2.3-11.93-5.15-16.25-10.22a45.75,45.75,0,0,1-6.8-10.39,91.84,91.84,0,0,1-6.91-23.86c-.37-2.27-1.07-4.5-1.66-6.74a5.87,5.87,0,0,0-.81-2c-.38-.53-1-1.17-1.59-1.17a2.21,2.21,0,0,0-1.55,1.18,53.78,53.78,0,0,0-2.11,5.08c-1.2,3.21-2.25,6.47-3.54,9.65-2.24,5.55-4.48,11.1-7,16.55-3.36,7.41-6.79,14.8-10.47,22.06a139.62,139.62,0,0,1-7.35,12.33c-2.41,3.76-5.06,7.36-7.63,11-.64.91-1.41,1.73-2.09,2.61-2.09,2.76-5,3.56-8.28,3.45a13.53,13.53,0,0,1-10.37-5.22,93.2,93.2,0,0,1-7.65-10.42,36.38,36.38,0,0,1-4.75-11.18c-.69-3.28-1.87-6.44-2.74-9.68-1.73-6.48-3.51-12.95-5.07-19.47-.74-3.1-.93-6.32-1.55-9.46-3.81-19.18-3.35-38.62-3.6-58,0-1.52,0-3,0-4.56Zm181.78,85.35.2,0c.11,1.67.14,3.35.36,5a8.7,8.7,0,0,0,2.13,5.22c1.27,1.29,2.65,1.39,3.65-.07a7.49,7.49,0,0,0,1.31-3.73,28.68,28.68,0,0,0-2.58-14.21c-.48-1-1-1.82-2.26-1.75s-1.67,1.17-1.83,2.17C202.11,183.36,201.85,185.81,201.53,188.25Z" transform="translate(-12.12 -13.89)"/>
  <path d="M708.76,293.64a22.11,22.11,0,0,1,1.44,2.88c1.51,4.55,3,9.13,3.14,14a42.9,42.9,0,0,1-4.52,20.62A85.5,85.5,0,0,1,697.48,348a87.52,87.52,0,0,1-13.62,13.39,65.92,65.92,0,0,1-9.52,6c-4.77,2.59-9.61,5.09-14.56,7.3a135,135,0,0,1-13.88,5.25,155.5,155.5,0,0,1-15.29,4c-10.18,2.1-20.46,3.6-30.77,4.91-23.64,3-47.37,3-71.11,2-9.25-.39-18.48-1.42-27.72-2.14-15.14-1.19-30.26-2.63-45.42-3.47-13.49-.74-27-1-40.51-1.14-18.63-.24-37.26-.35-55.88-.22-19.59.13-39.17.76-58.75.92-18.24.15-36.44,1.09-54.64,2.11q-18.92,1.06-37.73,3.21c-7.55.87-15.1,1.6-22.65,2.46-10.16,1.17-20.3,2.53-30.48,3.57-12.72,1.3-25.46,2.39-38.24,3-17.66.89-35.32.9-53,.74a63.29,63.29,0,0,1-14.42-2.14,57,57,0,0,1-23-11.42,28.42,28.42,0,0,1-5-5.73,35.16,35.16,0,0,0-7.59-8.23,4.45,4.45,0,0,1-1.5-2.3c-.34-1.28.3-2.06,1.61-2.47,4.38-1.36,8.71-.84,13,.44,2.34.7,2.86,1.75,2.53,4.17a4.36,4.36,0,0,1-.11.71c-1.32,4.36.5,7.59,4,9.84a69.53,69.53,0,0,0,9.52,5,63.39,63.39,0,0,0,8.62,2.93,92.5,92.5,0,0,0,23.44,3.21c13.27.2,26.55.27,39.81-.06,8.38-.2,16.74-1.16,25.09-1.89,8.92-.79,17.82-1.72,26.73-2.55,7.63-.71,15.28-1.24,22.91-2.06,12.64-1.34,25.34-1.72,38-2.53,21.86-1.39,43.73-2.32,65.62-3,15.66-.47,31.33-.72,47-1.3,27.17-1,54.35-.89,81.53-.62,12.38.12,24.76.77,37.13,1.41,9.1.46,18.18,1.29,27.26,2,11.87.88,23.73,1.88,35.61,2.63,7,.44,14.07.37,21.09.72a329.51,329.51,0,0,0,36.92-.06c3.51-.22,7-.09,10.54-.37,8.28-.64,16.58-1.22,24.82-2.23,5-.61,9.84-2,14.77-3a134.25,134.25,0,0,0,19.11-5.41,144.14,144.14,0,0,0,20.64-9.5,104.31,104.31,0,0,0,17.87-12.8,75.09,75.09,0,0,0,15.09-18.45c6.66-11.12,8.56-23.05,6.21-35.73-.31-1.7-.41-3.44-.61-5.17Z" transform="translate(-12.12 -13.89)"/>
  <path d="M481.26,73.64c0-2.64.08-5.28,0-7.91-.22-5.9,3.94-9.48,8.25-11.08a17,17,0,0,1,9.45-.57c2.8.58,5.55,1.44,8.32,2.19a48.7,48.7,0,0,1,13.16,6.26,44.14,44.14,0,0,1,13,11.88,81.73,81.73,0,0,1,8.51,16c4.9,12,5.58,24.48,4.45,37.21-.65,7.3-2.65,14.24-4.71,21.23-2.38,8.11-4.52,16.31-6.25,24.58s.19,16.16,4.53,23.45c3.91,6.56,9.65,11.16,16,15.14a80.25,80.25,0,0,0,14.65,7c7.4,2.79,14.91,5.26,22.52,7.33,6.24,1.69,12.58,3,18.9,4.33a99.28,99.28,0,0,1,25.74,8.89,13.92,13.92,0,0,1,3.08,2.25,2.21,2.21,0,0,1,.63,1.84,2.09,2.09,0,0,1-1.56,1.17,18.63,18.63,0,0,1-4.95-.49,51.84,51.84,0,0,1-5.8-2.25c-7.86-3.2-16.15-5-24.23-7.56-3.49-1.08-7.16-1.62-10.73-2.49-9.15-2.23-18.37-4.21-27.4-6.85a67,67,0,0,1-23-12.08,42.77,42.77,0,0,1-13.92-18.82,32.78,32.78,0,0,1-1.74-13.23,65.71,65.71,0,0,1,3.72-19.45,129.09,129.09,0,0,0,5.65-20c2-10,3.05-20,1.7-30.25a65.7,65.7,0,0,0-5.29-19.58,91.49,91.49,0,0,0-6.84-11.21A37.72,37.72,0,0,0,522.61,75a65.71,65.71,0,0,0-6.41-5.73A58.81,58.81,0,0,0,502,61a18.65,18.65,0,0,0-8.7-1.21c-2.88.23-4.34,1.49-4.95,4.33a18,18,0,0,0-.42,4.27c.24,8.39.46,16.77.87,25.15s.92,16.59,1.58,24.87c.8,10,1.62,19.91,2.77,29.83.6,5.14,2,10.18,2.93,15.29.79,4.32,1.52,8.65,2.12,13,.82,5.93,1.63,11.87,2.18,17.83.68,7.23,1,14.5,1.61,21.74a2.85,2.85,0,0,1-1.84,3.24c-.59.25-1.14.59-1.74.8-3,1.1-4.66.25-5.13-2.93a76.45,76.45,0,0,1-.81-9.3c-.17-8-.07-16-.28-24-.18-6.78-.58-13.57-1-20.34-.38-6.14-.72-12.29-1.45-18.39-1-8.16-2.35-16.28-3.48-24.43-.84-6-1.52-12-2.35-18C482.54,93.07,481.29,83.41,481.26,73.64Z" transform="translate(-12.12 -13.89)"/>
</svg>
